<svg width="25" height="24" viewBox="0 0 25 24" fill="none" xmlns="http://www.w3.org/2000/svg">
<rect x="0.71875" y="0.5" width="23" height="23" rx="11.5" stroke="#5C5C5C"/>
<path fill-rule="evenodd" clip-rule="evenodd" d="M12.0714 12.9767C11.6254 12.9767 11.1807 12.8294 10.8087 12.5347L7.81872 10.124C7.60339 9.9507 7.57005 9.63536 7.74272 9.4207C7.91672 9.2067 8.23139 9.1727 8.44605 9.34536L11.4334 11.7534C11.8087 12.0507 12.3374 12.0507 12.7154 11.7507L15.6727 9.3467C15.8874 9.17136 16.2021 9.2047 16.3767 9.41936C16.5507 9.63336 16.5181 9.94803 16.3041 10.1227L13.3414 12.5307C12.9667 12.828 12.5187 12.9767 12.0714 12.9767Z" fill="#FBFAF8"/>
<path fill-rule="evenodd" clip-rule="evenodd" d="M15.3261 17.3335C15.3274 17.3322 15.3327 17.3335 15.3367 17.3335C16.0974 17.3335 16.7721 17.0615 17.2894 16.5448C17.8901 15.9468 18.2201 15.0875 18.2201 14.1255V9.54683C18.2201 7.68483 17.0027 6.3335 15.3261 6.3335H8.78072C7.10405 6.3335 5.88672 7.68483 5.88672 9.54683V14.1255C5.88672 15.0875 6.21739 15.9468 6.81739 16.5448C7.33472 17.0615 8.01005 17.3335 8.77005 17.3335H15.3261ZM8.76805 18.3335C7.73939 18.3335 6.82072 17.9602 6.11139 17.2535C5.32139 16.4655 4.88672 15.3548 4.88672 14.1255V9.54683C4.88672 7.14483 6.56072 5.3335 8.78072 5.3335H15.3261C17.5461 5.3335 19.2201 7.14483 19.2201 9.54683V14.1255C19.2201 15.3548 18.7854 16.4655 17.9954 17.2535C17.2867 17.9595 16.3674 18.3335 15.3367 18.3335H8.76805Z" fill="#FBFAF8"/>
<path fill-rule="evenodd" clip-rule="evenodd" d="M12.0714 12.9767C11.6254 12.9767 11.1807 12.8294 10.8087 12.5347L7.81872 10.124C7.60339 9.9507 7.57005 9.63536 7.74272 9.4207C7.91672 9.2067 8.23139 9.1727 8.44605 9.34536L11.4334 11.7534C11.8087 12.0507 12.3374 12.0507 12.7154 11.7507L15.6727 9.3467C15.8874 9.17136 16.2021 9.2047 16.3767 9.41936C16.5507 9.63336 16.5181 9.94803 16.3041 10.1227L13.3414 12.5307C12.9667 12.828 12.5187 12.9767 12.0714 12.9767Z" stroke="#5C5C5C"/>
<path fill-rule="evenodd" clip-rule="evenodd" d="M15.3261 17.3335C15.3274 17.3322 15.3327 17.3335 15.3367 17.3335C16.0974 17.3335 16.7721 17.0615 17.2894 16.5448C17.8901 15.9468 18.2201 15.0875 18.2201 14.1255V9.54683C18.2201 7.68483 17.0027 6.3335 15.3261 6.3335H8.78072C7.10405 6.3335 5.88672 7.68483 5.88672 9.54683V14.1255C5.88672 15.0875 6.21739 15.9468 6.81739 16.5448C7.33472 17.0615 8.01005 17.3335 8.77005 17.3335H15.3261ZM8.76805 18.3335C7.73939 18.3335 6.82072 17.9602 6.11139 17.2535C5.32139 16.4655 4.88672 15.3548 4.88672 14.1255V9.54683C4.88672 7.14483 6.56072 5.3335 8.78072 5.3335H15.3261C17.5461 5.3335 19.2201 7.14483 19.2201 9.54683V14.1255C19.2201 15.3548 18.7854 16.4655 17.9954 17.2535C17.2867 17.9595 16.3674 18.3335 15.3367 18.3335H8.76805Z" stroke="#5C5C5C"/>
</svg>
