<svg width="25" height="24" viewBox="0 0 25 24" fill="none" xmlns="http://www.w3.org/2000/svg">
<rect x="0.71875" y="0.5" width="23" height="23" rx="11.5" stroke="#5C5C5C"/>
<path fill-rule="evenodd" clip-rule="evenodd" d="M6.40993 6.7254L6.45829 6.67485C7.74324 5.38979 8.58001 5.04917 9.47283 5.56258C9.72965 5.71026 9.97042 5.91698 10.2978 6.2495L11.3021 7.29085C11.8567 7.89612 11.9828 8.47668 11.8022 9.1566L11.7773 9.24661L11.7497 9.33611L11.6155 9.72999C11.3281 10.6133 11.4481 11.1117 12.4704 12.1338C13.5336 13.1966 14.0298 13.2836 14.9813 12.9511L15.1508 12.8921L15.3559 12.8256L15.4456 12.8006C16.1683 12.6078 16.7788 12.7617 17.4262 13.4087L18.2354 14.1903L18.4736 14.4245C18.7377 14.6939 18.9122 14.9072 19.0411 15.1328C19.5513 16.0253 19.2103 16.8616 17.8883 18.1786L17.7626 18.3061C17.5652 18.4963 17.3808 18.6326 17.1099 18.7612C16.6551 18.9771 16.1178 19.0585 15.4936 18.9717C13.9553 18.7578 12.0042 17.544 9.53203 15.0725C9.33079 14.8713 9.13805 14.674 8.95361 14.4805L8.59576 14.0986C5.24253 10.4554 4.94671 8.21742 6.3209 6.81383L6.40993 6.7254ZM9.48839 6.85411C9.27119 6.63999 9.11342 6.50945 8.97433 6.42947C8.66664 6.25254 8.33445 6.32733 7.71964 6.85648L7.52647 7.02906C7.49277 7.06016 7.4583 7.09245 7.42304 7.12595L7.20152 7.3417L7.18156 7.36664L7.03139 7.51752C6.66849 7.88819 6.49659 8.34059 6.64472 9.11861C6.88779 10.3953 8.00039 12.1272 10.2391 14.3653C12.5716 16.6973 14.3489 17.8029 15.6313 17.9813C16.3789 18.0852 16.7603 17.9042 17.1491 17.5058L17.4457 17.2065C17.5848 17.061 17.7036 16.929 17.8039 16.8086L17.9408 16.6361C18.2906 16.1702 18.3225 15.8907 18.1729 15.629C18.116 15.5294 18.0332 15.4203 17.9127 15.2869L17.7492 15.1142L17.6525 15.0174L16.6316 14.0316C16.2905 13.717 16.0574 13.6724 15.7034 13.7668L15.6012 13.7962L15.1784 13.9398C13.9516 14.336 13.0666 14.1439 11.7634 12.8409C10.4136 11.4915 10.2553 10.5904 10.7076 9.29295L10.7366 9.20957L10.8168 8.96785L10.8563 8.81378C10.9262 8.47847 10.8464 8.24468 10.4859 7.88417L10.4364 7.8343L9.48839 6.85411Z" fill="#FBFAF8"/>
</svg>
